# xmcd
#
# Track frame offsets:
# 150
# 16923
# 38531
# 56983
# 73756
#
# Disc length: 1190 seconds
#
#
# Revision: 0
# Processed by: cddbd v1.5.2PL0 Copyright (c) Steve Scherf et al.
# Submitted via: Nero 7, 2, 0, 3 
#
DISCID=3d04a405
DTITLE=SAMMY MAYFIELD - BIG WOLF KNOCKIN
DYEAR=2008
DGENRE=Blues
TTITLE0=BIG WOLF KNOCKIN
TTITLE1=BIG WOLF KNOCKIN
TTITLE2=BIG WOLF KNOCKIN
TTITLE3=BIG WOLF KNOCKIN
TTITLE4=BIG WOLF KNOCKIN
EXTD=
EXTT0=
EXTT1=
EXTT2=
EXTT3=
EXTT4=
PLAYORDER=
